<?xml version="1.0" standalone="no"?>
<!DOCTYPE svg PUBLIC "-//W3C//DTD SVG 20010904//EN"
 "http://www.w3.org/TR/2001/REC-SVG-20010904/DTD/svg10.dtd">
<svg version="1.0" xmlns="http://www.w3.org/2000/svg"
 width="1000.000000pt" height="1000.000000pt" viewBox="0 0 1000.000000 1000.000000"
 preserveAspectRatio="xMidYMid meet">
<metadata>
Created by potrace 1.11, written by Peter Selinger 2001-2013
</metadata>
<g transform="translate(0.000000,1000.000000) scale(0.100000,-0.100000)"
fill="#000000" stroke="none">
<path d="M1633 8009 c-100 -18 -212 -101 -260 -193 -40 -77 -40 -45 -39 -2626
l1 -2495 118 -1 117 0 0 2490 c0 2352 1 2493 18 2525 9 19 33 43 52 53 33 17
148 18 3176 18 l3141 0 0 118 0 118 -3141 0 c-1728 0 -3160 -3 -3183 -7z"/>
<path d="M2206 7413 c-69 -15 -120 -46 -176 -103 -52 -52 -78 -102 -95 -175
-12 -56 -14 -4802 -1 -4865 17 -86 91 -188 170 -234 96 -56 -97 -53 3211 -51
2763 2 3064 3 3101 17 103 40 188 121 226 217 l22 56 1 2411 c1 1998 -1 2421
-12 2465 -28 111 -130 219 -242 255 -53 17 -196 18 -3104 19 -2327 0 -3061 -3
-3101 -12z m6147 -238 c18 -9 41 -28 52 -43 20 -27 20 -45 23 -2421 2 -2387 2
-2394 -18 -2426 -11 -18 -36 -40 -54 -49 -31 -15 -302 -16 -3063 -16 -2914 0
-3030 1 -3062 18 -19 10 -42 33 -52 51 -16 30 -17 176 -17 2414 0 2657 -7
2428 71 2466 l42 21 3023 0 c2697 0 3027 -2 3055 -15z"/>
<path d="M4695 5605 c-109 -25 -201 -100 -252 -203 l-28 -57 0 -750 0 -750 29
-62 c35 -76 104 -144 184 -181 49 -23 70 -27 153 -27 106 0 106 0 354 133 61
32 153 81 205 109 52 28 131 70 175 93 44 24 143 77 220 118 77 40 167 89 200
106 33 18 113 61 177 96 64 34 134 80 156 101 137 136 135 373 -3 512 -26 26
-98 72 -191 121 -292 155 -574 305 -649 346 -27 15 -95 51 -150 80 -55 29
-165 88 -245 131 -183 98 -227 109 -335 84z m195 -269 c30 -16 183 -97 340
-181 157 -83 335 -178 395 -210 61 -32 133 -70 160 -85 28 -15 93 -50 145 -78
52 -28 114 -61 138 -73 54 -29 74 -60 77 -118 3 -67 -23 -100 -119 -150 -45
-23 -108 -57 -141 -75 -33 -18 -98 -53 -145 -78 -719 -384 -923 -489 -950
-493 -41 -5 -101 24 -126 62 -17 27 -18 62 -18 723 0 668 1 696 19 724 46 69
131 81 225 32z"/>
</g>
</svg>
