<svg width="319" height="60" viewBox="0 0 319 60" fill="none" xmlns="http://www.w3.org/2000/svg">
<path d="M0.411774 58.7513H8.02884V0.998961H0.411774V58.7513ZM22.6386 58.7513H29.6313V37.3361C30.3806 33.7773 33.6272 23.4131 42.6178 23.4131C46.8634 23.4131 48.9237 25.7232 48.9237 31.717V58.7513H55.9165V29.719C55.9165 21.1655 50.6095 17.4194 43.8041 17.4194C34.314 17.4194 30.5679 23.8502 29.3816 26.5973V18.6056H22.6386V58.7513ZM70.1516 58.7513H77.3316V20.1041C77.3316 16.8574 77.1443 12.4246 77.0195 9.73986C77.956 13.0489 79.2047 17.0447 80.1412 19.4173L95.8748 58.7513H102.243L117.352 19.8543L121.286 9.17794C121.161 11.9251 120.974 16.8574 120.974 20.3538V58.7513H128.154V0.998961H117.54L101.369 42.5182C100.433 44.7659 99.6209 46.9511 98.9966 48.6993C98.4971 46.9511 97.6854 44.7034 96.8113 42.5182L80.1412 0.998961H70.1516V58.7513ZM158.747 60C171.733 60 177.228 50.4474 177.228 38.0229C177.228 25.0364 171.047 17.4194 158.747 17.4194C145.948 17.4194 140.016 26.2227 140.016 38.0229C140.016 51.384 145.511 60 158.747 60ZM158.747 54.1935C151.442 54.1935 147.509 48.949 147.509 38.897C147.509 28.9698 151.442 23.1634 158.747 23.1634C165.864 23.1634 169.735 28.7825 169.735 38.897C169.735 48.1998 165.864 54.1935 158.747 54.1935ZM183.346 24.2248H190.214V46.9511C190.214 53.3195 192.087 59.6254 200.079 59.6254C206.073 59.6254 208.882 56.0666 210.755 51.5713L205.386 49.1987C204.512 52.3829 203.138 53.8814 200.953 53.8814C198.143 53.8814 197.207 51.5713 197.207 46.5765V24.2248H208.57V18.6056H197.207V6.74298H190.776L190.339 18.6056H183.346V24.2248ZM217.81 4.74506C217.81 7.42976 219.808 9.42768 222.555 9.42768C225.178 9.42768 227.238 7.42976 227.238 4.74506C227.238 2.12279 225.178 0 222.555 0C219.808 0 217.81 2.12279 217.81 4.74506ZM219.121 58.7513H226.114V18.6056H219.121V58.7513ZM255.833 60C268.882 60 274.376 50.4474 274.376 38.0229C274.376 25.0364 268.133 17.4194 255.833 17.4194C243.096 17.4194 237.103 26.2227 237.103 38.0229C237.103 51.384 242.659 60 255.833 60ZM255.833 54.1935C248.591 54.1935 244.657 48.949 244.657 38.897C244.657 28.9698 248.591 23.1634 255.833 23.1634C263.013 23.1634 266.822 28.7825 266.822 38.897C266.822 48.1998 263.013 54.1935 255.833 54.1935ZM285.365 58.7513H292.358V37.3361C293.169 33.7773 296.416 23.4131 305.407 23.4131C309.59 23.4131 311.712 25.7232 311.712 31.717V58.7513H318.705V29.719C318.705 21.1655 313.336 17.4194 306.53 17.4194C297.103 17.4194 293.357 23.8502 292.108 26.5973V18.6056H285.365V58.7513Z" fill="black"/>
</svg>
