<svg xmlns="http://www.w3.org/2000/svg" viewBox="0 0 72.94117647058823 60" class="icon"><defs xmlns="http://www.w3.org/2000/svg"><linearGradient data-v-fde0c5aa="" gradientTransform="rotate(25)" id="54f1b464-abfe-438c-9c97-51d33f975b6e" x1="0%" y1="0%" x2="100%" y2="0%"><stop data-v-fde0c5aa="" offset="0%" stop-color="#8C48D2" stop-opacity="1"/><stop data-v-fde0c5aa="" offset="100%" stop-color="#CF705A" stop-opacity="1"/></linearGradient></defs>
<g xmlns="http://www.w3.org/2000/svg" id="c77fb040-1fd6-4f68-aad3-31884fa45681" transform="matrix(1.1764705882352942,0,0,1.1764705882352942,-10.588235322166895,-18.82352941176471)" stroke="none" fill="url(#54f1b464-abfe-438c-9c97-51d33f975b6e)"><path d="M38.1 53.6c-1.7 0-3.1-1.4-3.1-3.1V39.4c0-1.7 1.4-3.1 3.1-3.1.5 0 1 .1 1.4.4L50 42.3c1 .5 1.6 1.6 1.6 2.7s-.6 2.2-1.6 2.7l-10.5 5.6c-.4.2-.9.3-1.4.3zm0-15.2c-.5 0-1.1.4-1.1 1.1v11.1c0 .7.6 1.1 1.1 1.1.2 0 .3 0 .5-.1L49.1 46c.4-.2.6-.5.6-1s-.2-.8-.6-1l-10.5-5.6h-.5z"/><path d="M11 61H9V19.1c0-1.7 1.4-3.1 3.1-3.1H65v2H12.1c-.6 0-1.1.5-1.1 1.1V61z"/><path d="M67.9 67H17.1c-1.7 0-3.1-1.4-3.1-3.1V24.1c0-1.7 1.4-3.1 3.1-3.1h50.8c1.7 0 3.1 1.4 3.1 3.1v39.8c0 1.7-1.4 3.1-3.1 3.1zM17.1 23c-.6 0-1.1.5-1.1 1.1v39.8c0 .6.5 1.1 1.1 1.1h50.8c.6 0 1.1-.5 1.1-1.1V24.1c0-.6-.5-1.1-1.1-1.1H17.1z"/></g></svg>
